<!--?xml version="1.0" encoding="iso-8859-1"?-->
<!-- Generator: Adobe Illustrator 19.0.0, SVG Export Plug-In . SVG Version: 6.00 Build 0)  -->
<svg version="1.1" id="Layer_1" xmlns="http://www.w3.org/2000/svg" xmlns:xlink="http://www.w3.org/1999/xlink" x="0px" y="0px" viewBox="0 0 512 512" style="" xml:space="preserve">
<style>
    path{fill:none; stroke: #000;stroke-miterlimit: 10;stroke-width: 5px"}
    circle{fill:none;stroke: #000;stroke-miterlimit: 10;stroke-width: 1px"}
</style>
<g>
    <g>
        <g>
            <path d="M486.4,0H25.6C11.486,0,0,11.486,0,25.6v51.2v409.6C0,500.514,11.486,512,25.6,512h460.8c14.114,0,25.6-11.486,25.6-25.6
                V76.8V25.6C512,11.486,500.514,0,486.4,0z M17.067,25.6c0-4.702,3.831-8.533,8.533-8.533h460.8c4.702,0,8.533,3.831,8.533,8.533
                v42.667H17.067V25.6z M494.933,486.4c0,4.702-3.831,8.533-8.533,8.533H25.6c-4.702,0-8.533-3.831-8.533-8.533V85.333h477.867
                V486.4z" class="PDnjdNUB_0"></path>
            <path style="fill:none;stroke: #000;stroke-miterlimit: 10;stroke-width: 1px" d="M34.134,42.667A8.533,8.533 0,1,1 51.2,42.667A8.533,8.533 0,1,1 34.134,42.667" class="PDnjdNUB_1"></path>
            <path style="fill:none;stroke: #000;stroke-miterlimit: 10;stroke-width: 1px" d="M68.267,42.667A8.533,8.533 0,1,1 85.333,42.667A8.533,8.533 0,1,1 68.267,42.667" class="PDnjdNUB_2"></path>
            <path style="fill:none;stroke: #000;stroke-miterlimit: 10;stroke-width: 1px" d="M102.4,42.667A8.533,8.533 0,1,1 119.46600000000001,42.667A8.533,8.533 0,1,1 102.4,42.667" class="PDnjdNUB_3"></path>
            <path d="M78.387,363.358c1.664,2.33,4.292,3.575,6.955,3.575c1.715,0,3.447-0.521,4.949-1.587
                c3.84-2.739,4.727-8.073,1.988-11.904l-39.125-54.775l39.125-54.775c2.739-3.831,1.852-9.165-1.988-11.904
                c-3.823-2.739-9.165-1.852-11.904,1.988l-42.667,59.733c-2.116,2.97-2.116,6.946,0,9.916L78.387,363.358z" class="PDnjdNUB_4"></path>
            <path d="M421.709,365.346c1.502,1.067,3.234,1.587,4.949,1.587c2.662,0,5.291-1.246,6.955-3.575l42.667-59.733
                c2.116-2.97,2.116-6.946,0-9.916l-42.667-59.733c-2.739-3.84-8.081-4.727-11.904-1.988c-3.84,2.739-4.727,8.073-1.988,11.904
                l39.125,54.775l-39.125,54.775C416.981,357.274,417.869,362.607,421.709,365.346z" class="PDnjdNUB_5"></path>
            <path d="M110.933,341.333c4.71,0,8.533-3.823,8.533-8.533v-25.6H153.6v25.6c0,4.71,3.823,8.533,8.533,8.533
                c4.71,0,8.533-3.823,8.533-8.533v-68.267c0-4.71-3.823-8.533-8.533-8.533c-4.71,0-8.533,3.823-8.533,8.533v25.6h-34.133v-25.6
                c0-4.71-3.823-8.533-8.533-8.533s-8.533,3.823-8.533,8.533V332.8C102.4,337.51,106.223,341.333,110.933,341.333z" class="PDnjdNUB_6"></path>
            <path d="M196.267,273.067h17.067V332.8c0,4.71,3.823,8.533,8.533,8.533c4.71,0,8.533-3.823,8.533-8.533v-59.733h17.067
                c4.71,0,8.533-3.823,8.533-8.533c0-4.71-3.823-8.533-8.533-8.533h-51.2c-4.71,0-8.533,3.823-8.533,8.533
                C187.733,269.244,191.556,273.067,196.267,273.067z" class="PDnjdNUB_7"></path>
            <path d="M281.6,341.333c4.71,0,8.533-3.823,8.533-8.533v-42.667l10.24,13.653c3.217,4.301,10.436,4.301,13.653,0l10.24-13.653
                V332.8c0,4.71,3.823,8.533,8.533,8.533c4.71,0,8.533-3.823,8.533-8.533v-68.267c0-3.678-2.347-6.938-5.837-8.098
                c-3.473-1.152-7.322,0.043-9.523,2.978L307.2,284.442l-18.773-25.028c-2.202-2.935-6.042-4.139-9.523-2.978
                c-3.49,1.161-5.837,4.42-5.837,8.098V332.8C273.067,337.51,276.89,341.333,281.6,341.333z" class="PDnjdNUB_8"></path>
            <path d="M366.933,341.333h34.133c4.71,0,8.533-3.823,8.533-8.533c0-4.71-3.823-8.533-8.533-8.533h-25.6v-59.733
                c0-4.71-3.823-8.533-8.533-8.533s-8.533,3.823-8.533,8.533V332.8C358.4,337.51,362.223,341.333,366.933,341.333z" class="PDnjdNUB_9"></path>
        </g>
    </g>
</g>
<g>
</g>
<g>
</g>
<g>
</g>
<g>
</g>
<g>
</g>
<g>
</g>
<g>
</g>
<g>
</g>
<g>
</g>
<g>
</g>
<g>
</g>
<g>
</g>
<g>
</g>
<g>
</g>
<g>
</g>
<style data-made-with="vivus-instant">.PDnjdNUB_0{stroke-dasharray:4823 4825;stroke-dashoffset:4824;animation:PDnjdNUB_draw 2000ms ease-in-out 0ms forwards;}.PDnjdNUB_1{stroke-dasharray:54 56;stroke-dashoffset:55;animation:PDnjdNUB_draw 2000ms ease-in-out 111ms forwards;}.PDnjdNUB_2{stroke-dasharray:54 56;stroke-dashoffset:55;animation:PDnjdNUB_draw 2000ms ease-in-out 222ms forwards;}.PDnjdNUB_3{stroke-dasharray:54 56;stroke-dashoffset:55;animation:PDnjdNUB_draw 2000ms ease-in-out 333ms forwards;}.PDnjdNUB_4{stroke-dasharray:346 348;stroke-dashoffset:347;animation:PDnjdNUB_draw 2000ms ease-in-out 444ms forwards;}.PDnjdNUB_5{stroke-dasharray:346 348;stroke-dashoffset:347;animation:PDnjdNUB_draw 2000ms ease-in-out 555ms forwards;}.PDnjdNUB_6{stroke-dasharray:415 417;stroke-dashoffset:416;animation:PDnjdNUB_draw 2000ms ease-in-out 666ms forwards;}.PDnjdNUB_7{stroke-dasharray:286 288;stroke-dashoffset:287;animation:PDnjdNUB_draw 2000ms ease-in-out 777ms forwards;}.PDnjdNUB_8{stroke-dasharray:431 433;stroke-dashoffset:432;animation:PDnjdNUB_draw 2000ms ease-in-out 888ms forwards;}.PDnjdNUB_9{stroke-dasharray:255 257;stroke-dashoffset:256;animation:PDnjdNUB_draw 2000ms ease-in-out 1000ms forwards;}@keyframes PDnjdNUB_draw{100%{stroke-dashoffset:0;}}@keyframes PDnjdNUB_fade{0%{stroke-opacity:1;}94.44444444444444%{stroke-opacity:1;}100%{stroke-opacity:0;}}</style></svg>
