<svg xmlns="http://www.w3.org/2000/svg" viewBox="0 0 325.38 33.6"><title>logo_de</title><g id="레이어_2" data-name="레이어 2"><g id="레이어_1-2" data-name="레이어 1"><path d="M2,31.62a6.81,6.81,0,0,1-2-4.8v-20A6.81,6.81,0,0,1,2,2l.18-.18A6.86,6.86,0,0,1,6.78.06h8.34a14.24,14.24,0,0,1,14.1,14.1V19.5a14.2,14.2,0,0,1-14.1,14.1H6.78a6.86,6.86,0,0,1-4.62-1.8ZM3.66,31a5.25,5.25,0,0,0,3.12,1h8.34A12.6,12.6,0,0,0,27.66,19.5V14.16A12.6,12.6,0,0,0,15.12,1.68H6.78a5.25,5.25,0,0,0-3.12,1V2.64l-.54.54a5.17,5.17,0,0,0-1.5,3.66v20a5.17,5.17,0,0,0,1.5,3.66l.54.54Z"/><path d="M60.3.06a.81.81,0,0,1,.84.78.82.82,0,0,1-.84.84H48.48A12.55,12.55,0,0,0,36,14.16V16H58.2a.79.79,0,0,1,.78.78.81.81,0,0,1-.78.84H36V19.5A12.55,12.55,0,0,0,48.48,32H60.3a.82.82,0,0,1,.84.84.81.81,0,0,1-.84.78H48.48a14.24,14.24,0,0,1-14.1-14.1V14.16A14.24,14.24,0,0,1,48.48.06Z"/><path d="M97,8a.79.79,0,0,1-.78.78A.81.81,0,0,1,95.4,8a6.39,6.39,0,0,0-1.86-4.56L92.94,3A6.07,6.07,0,0,0,89,1.62H75.3a6.36,6.36,0,0,0-4,1.38l-.54.48A6.39,6.39,0,0,0,68.94,8c0,13,28.38,3.24,28.38,17.52a8.07,8.07,0,0,1-8,8H74.88a8,8,0,0,1-5.64-2.34L69.06,31a7.87,7.87,0,0,1-2.16-5.16v-.3a.79.79,0,0,1,.78-.78.81.81,0,0,1,.84.78,6.4,6.4,0,0,0,1.68,4.32l.18.24A6.36,6.36,0,0,0,74.88,32H89.34a6.41,6.41,0,0,0,6.36-6.42c0-7.62-9.18-6.84-13.86-8-8.16-1-14.52-2.88-14.52-9.54a8.14,8.14,0,0,1,2.34-5.7l.18-.18A8,8,0,0,1,75.3,0H89A8,8,0,0,1,94.5,2.16l.18.18A8,8,0,0,1,97,8Z"/><path d="M105.78,32.82a.81.81,0,0,1-.84.78.79.79,0,0,1-.78-.78V.84a.79.79,0,0,1,.78-.78.81.81,0,0,1,.84.78Z"/><path d="M135.9,12a10.8,10.8,0,1,1,0,21.6h-7.74a14.2,14.2,0,0,1-14.1-14.1V14.16A14.24,14.24,0,0,1,128.16.06H143a.81.81,0,0,1,.84.78.82.82,0,0,1-.84.84H128.16a12.55,12.55,0,0,0-12.48,12.48V19.5A12.55,12.55,0,0,0,128.16,32h7.74a9.18,9.18,0,1,0,0-18.36h-7.68a.82.82,0,0,1-.84-.84.81.81,0,0,1,.84-.78h7.68Z"/><path d="M153,32.76a.72.72,0,0,1-1.44,0V2.82A2.75,2.75,0,0,1,154.32.06a2.64,2.64,0,0,1,2.16,1.08l23.64,30.48a1.14,1.14,0,0,0,1,.54,1.35,1.35,0,0,0,1.38-1.32V.9a.72.72,0,1,1,1.44,0V30.84a2.79,2.79,0,0,1-2.76,2.76A2.64,2.64,0,0,1,179,32.52L155.34,2a1.22,1.22,0,0,0-1-.54A1.35,1.35,0,0,0,153,2.82Z"/><path d="M192.3,32.76a.72.72,0,1,1-1.44,0V2.82A2.75,2.75,0,0,1,193.62.06a2.64,2.64,0,0,1,2.16,1.08l23.64,30.48a1.14,1.14,0,0,0,1,.54,1.35,1.35,0,0,0,1.38-1.32V.9a.72.72,0,0,1,1.44,0V30.84a2.79,2.79,0,0,1-2.76,2.76,2.64,2.64,0,0,1-2.16-1.08L194.64,2a1.22,1.22,0,0,0-1-.54,1.35,1.35,0,0,0-1.38,1.32Z"/><path d="M256.08.06a.81.81,0,0,1,.84.78.82.82,0,0,1-.84.84H244.26a12.55,12.55,0,0,0-12.48,12.48V16H254a.79.79,0,0,1,.78.78.81.81,0,0,1-.78.84h-22.2V19.5A12.55,12.55,0,0,0,244.26,32h11.82a.82.82,0,0,1,.84.84.81.81,0,0,1-.84.78H244.26a14.24,14.24,0,0,1-14.1-14.1V14.16A14.24,14.24,0,0,1,244.26.06Z"/><path d="M292.8,8a.79.79,0,0,1-.78.78.81.81,0,0,1-.84-.78,6.4,6.4,0,0,0-1.86-4.56l-.6-.48a6.07,6.07,0,0,0-3.9-1.38H271.08a6.36,6.36,0,0,0-4,1.38l-.54.48A6.39,6.39,0,0,0,264.72,8c0,13,28.38,3.24,28.38,17.52a8.07,8.07,0,0,1-8,8H270.66A8,8,0,0,1,265,31.26l-.18-.24a7.87,7.87,0,0,1-2.16-5.16v-.3a.79.79,0,0,1,.78-.78.81.81,0,0,1,.84.78A6.4,6.4,0,0,0,266,29.88l.18.24a6.36,6.36,0,0,0,4.5,1.86h14.46a6.42,6.42,0,0,0,6.36-6.42c0-7.62-9.18-6.84-13.86-8-8.16-1-14.52-2.88-14.52-9.54a8.14,8.14,0,0,1,2.34-5.7l.18-.18A8,8,0,0,1,271.08,0h13.74a8,8,0,0,1,5.46,2.16l.18.18A8,8,0,0,1,292.8,8Z"/><path d="M311.58,32.82a.79.79,0,0,1-.78.78.81.81,0,0,1-.84-.78V1.68h-13a.81.81,0,0,1-.78-.84.79.79,0,0,1,.78-.78H324.6a.79.79,0,0,1,.78.78.81.81,0,0,1-.78.84h-13Z"/></g></g></svg>