<svg id="레이어_1" data-name="레이어 1" xmlns="http://www.w3.org/2000/svg" xmlns:xlink="http://www.w3.org/1999/xlink" viewBox="0 0 330.362 48.214">
  <defs>
    <clipPath id="clip-path" transform="translate(-342.426 -200.402)">
      <path id="D" d="M349.267,240.485a6.814,6.814,0,0,1-1.98-4.8V215.707a6.813,6.813,0,0,1,1.98-4.8l.18-.18a6.861,6.861,0,0,1,4.62-1.8h8.34a14.239,14.239,0,0,1,14.1,14.1v5.339a14.2,14.2,0,0,1-14.1,14.1h-8.34a6.861,6.861,0,0,1-4.62-1.8Zm1.68-.66a5.248,5.248,0,0,0,3.12,1.02h8.34a12.6,12.6,0,0,0,12.539-12.479v-5.339a12.6,12.6,0,0,0-12.539-12.479h-8.34a5.251,5.251,0,0,0-3.12,1.02v-.06l-.54.54a5.175,5.175,0,0,0-1.5,3.66v19.979a5.175,5.175,0,0,0,1.5,3.66l.54.54Z" style="fill: none"/>
    </clipPath>
  </defs>
  <title>logo-d</title>
  <path id="T" d="M658.863,241.686a.794.794,0,0,1-.779.78.808.808,0,0,1-.84-.78V210.547h-13.02a.809.809,0,0,1-.78-.84.794.794,0,0,1,.78-.78h27.658a.794.794,0,0,1,.78.78.809.809,0,0,1-.78.84h-13.02Z" transform="translate(-342.426 -200.402)" style="fill: none;stroke: #000;stroke-miterlimit: 10;stroke-width: 0.25px"/>
  <path id="S" d="M640.083,216.906a.8.8,0,0,1-.78.78.809.809,0,0,1-.84-.78,6.4,6.4,0,0,0-1.859-4.56l-.6-.48a6.074,6.074,0,0,0-3.9-1.38H618.364a6.356,6.356,0,0,0-3.96,1.38l-.54.48a6.392,6.392,0,0,0-1.86,4.56c0,13.02,28.379,3.24,28.379,17.52a8.067,8.067,0,0,1-7.979,8.04h-14.46a7.994,7.994,0,0,1-5.639-2.34l-.181-.24a7.865,7.865,0,0,1-2.159-5.16v-.3a.794.794,0,0,1,.779-.78.808.808,0,0,1,.84.78,6.4,6.4,0,0,0,1.68,4.32l.181.24a6.355,6.355,0,0,0,4.5,1.86H632.4a6.415,6.415,0,0,0,6.36-6.419c0-7.62-9.18-6.84-13.859-7.98-8.16-1.02-14.52-2.88-14.52-9.54a8.136,8.136,0,0,1,2.34-5.7l.18-.18a8.033,8.033,0,0,1,5.46-2.16H632.1a8.033,8.033,0,0,1,5.46,2.16l.18.18a8,8,0,0,1,2.34,5.64Z" transform="translate(-342.426 -200.402)" style="fill: none;stroke: #000;stroke-miterlimit: 10;stroke-width: 0.25px"/>
  <path id="E" d="M603.363,208.927a.808.808,0,0,1,.84.78.82.82,0,0,1-.84.84H591.545a12.548,12.548,0,0,0-12.48,12.479v1.86h22.2a.794.794,0,0,1,.78.78.809.809,0,0,1-.78.84h-22.2v1.86a12.548,12.548,0,0,0,12.48,12.479h11.818a.82.82,0,0,1,.84.84.808.808,0,0,1-.84.78H591.545a14.239,14.239,0,0,1-14.1-14.1v-5.339a14.239,14.239,0,0,1,14.1-14.1Z" transform="translate(-342.426 -200.402)" style="fill: none;stroke: #000;stroke-miterlimit: 10;stroke-width: 0.25px"/>
  <path id="N" d="M539.584,241.625a.72.72,0,0,1-1.439,0V211.687a2.75,2.75,0,0,1,2.76-2.76,2.643,2.643,0,0,1,2.16,1.08L566.7,240.485a1.136,1.136,0,0,0,.96.54,1.345,1.345,0,0,0,1.38-1.32V209.767a.72.72,0,0,1,1.44,0v29.939a2.792,2.792,0,0,1-2.761,2.76,2.641,2.641,0,0,1-2.159-1.08l-23.64-30.479a1.218,1.218,0,0,0-.959-.54,1.346,1.346,0,0,0-1.381,1.32Z" transform="translate(-342.426 -200.402)" style="fill: none;stroke: #000;stroke-miterlimit: 10;stroke-width: 0.25px"/>
  <path id="N-2" data-name="N" d="M500.285,241.625a.72.72,0,0,1-1.44,0V211.687a2.75,2.75,0,0,1,2.76-2.76,2.643,2.643,0,0,1,2.16,1.08L527.4,240.485a1.137,1.137,0,0,0,.96.54,1.346,1.346,0,0,0,1.381-1.32V209.767a.72.72,0,1,1,1.439,0v29.939a2.791,2.791,0,0,1-2.76,2.76,2.643,2.643,0,0,1-2.16-1.08l-23.639-30.479a1.221,1.221,0,0,0-.96-.54,1.346,1.346,0,0,0-1.38,1.32Z" transform="translate(-342.426 -200.402)" style="fill: none;stroke: #000;stroke-miterlimit: 10;stroke-width: 0.25px"/>
  <path id="G" d="M483.184,220.866a10.8,10.8,0,1,1,0,21.6h-7.739a14.2,14.2,0,0,1-14.1-14.1v-5.339a14.239,14.239,0,0,1,14.1-14.1h14.819a.808.808,0,0,1,.84.78.82.82,0,0,1-.84.84H475.444a12.547,12.547,0,0,0-12.479,12.479v5.339a12.547,12.547,0,0,0,12.479,12.479h7.739a9.179,9.179,0,1,0,0-18.359H475.5a.821.821,0,0,1-.84-.84.809.809,0,0,1,.84-.78h7.68Z" transform="translate(-342.426 -200.402)" style="fill: none;stroke: #000;stroke-miterlimit: 10;stroke-width: 0.25px"/>
  <path id="I" d="M453.065,241.686a.809.809,0,0,1-.84.78.794.794,0,0,1-.78-.78V209.707a.794.794,0,0,1,.78-.78.809.809,0,0,1,.84.78Z" transform="translate(-342.426 -200.402)" style="fill: none;stroke: #000;stroke-miterlimit: 10;stroke-width: 0.25px"/>
  <path id="S-2" data-name="S" d="M444.3,216.906a.794.794,0,0,1-.78.78.809.809,0,0,1-.84-.78,6.394,6.394,0,0,0-1.86-4.56l-.6-.48a6.072,6.072,0,0,0-3.9-1.38H422.586a6.356,6.356,0,0,0-3.96,1.38l-.54.48a6.392,6.392,0,0,0-1.86,4.56c0,13.02,28.379,3.24,28.379,17.52a8.067,8.067,0,0,1-7.98,8.04H422.166a8,8,0,0,1-5.64-2.34l-.18-.24a7.866,7.866,0,0,1-2.16-5.16v-.3a.794.794,0,0,1,.78-.78.809.809,0,0,1,.84.78,6.4,6.4,0,0,0,1.68,4.32l.18.24a6.356,6.356,0,0,0,4.5,1.86h14.459a6.415,6.415,0,0,0,6.36-6.419c0-7.62-9.18-6.84-13.859-7.98-8.16-1.02-14.52-2.88-14.52-9.54a8.136,8.136,0,0,1,2.34-5.7l.18-.18a8.033,8.033,0,0,1,5.46-2.16h13.739a8.033,8.033,0,0,1,5.46,2.16l.18.18a8,8,0,0,1,2.34,5.64Z" transform="translate(-342.426 -200.402)" style="fill: none;stroke: #000;stroke-miterlimit: 10;stroke-width: 0.25px"/>
  <path id="E-2" data-name="E" d="M407.585,208.927a.808.808,0,0,1,.84.78.82.82,0,0,1-.84.84H395.766a12.547,12.547,0,0,0-12.479,12.479v1.86h22.2a.794.794,0,0,1,.78.78.809.809,0,0,1-.78.84h-22.2v1.86a12.547,12.547,0,0,0,12.479,12.479h11.819a.82.82,0,0,1,.84.84.808.808,0,0,1-.84.78H395.766a14.239,14.239,0,0,1-14.1-14.1v-5.339a14.239,14.239,0,0,1,14.1-14.1Z" transform="translate(-342.426 -200.402)" style="fill: none;stroke: #000;stroke-miterlimit: 10;stroke-width: 0.25px"/>
  <g style="clip-path: url(#clip-path)">
    <path d="M344,210h22s12,5,11,13-.495,10.25-.495,10.25A22.251,22.251,0,0,1,367.25,242C361,245,349,241,349,241l-1-27.75,8-9.25" transform="translate(-342.426 -200.402)" style="fill: none;stroke: #000;stroke-miterlimit: 10;stroke-width: 11px"/>
  </g>
</svg>
