<svg id="logo" xmlns="http://www.w3.org/2000/svg" xmlns:xlink="http://www.w3.org/1999/xlink" viewBox="0 0 345.171 73.265">
  <defs>
    <clipPath id="clip-path" transform="translate(-340.934 -77.368)">
      <path id="designnest" d="M349.646,129.02a6.814,6.814,0,0,1-1.98-4.8V104.241a6.814,6.814,0,0,1,1.98-4.8l.18-.18a6.859,6.859,0,0,1,4.62-1.8h8.34a14.239,14.239,0,0,1,14.1,14.1v5.34a14.2,14.2,0,0,1-14.1,14.1h-8.34a6.861,6.861,0,0,1-4.62-1.8Zm1.68-.66a5.251,5.251,0,0,0,3.12,1.02h8.34A12.6,12.6,0,0,0,375.325,116.9v-5.34a12.6,12.6,0,0,0-12.539-12.479h-8.34a5.252,5.252,0,0,0-3.12,1.02v-.06l-.54.54a5.175,5.175,0,0,0-1.5,3.66V124.22a5.174,5.174,0,0,0,1.5,3.66l.54.54Zm56.639-30.9a.808.808,0,0,1,.84.78.82.82,0,0,1-.84.84H396.146a12.548,12.548,0,0,0-12.479,12.479v1.86h22.2a.794.794,0,0,1,.78.78.809.809,0,0,1-.78.84h-22.2v1.86a12.547,12.547,0,0,0,12.479,12.479h11.819a.82.82,0,0,1,.84.84.808.808,0,0,1-.84.78H396.146a14.239,14.239,0,0,1-14.1-14.1v-5.34a14.239,14.239,0,0,1,14.1-14.1Zm36.719,7.979a.794.794,0,0,1-.78.78.809.809,0,0,1-.84-.78,6.394,6.394,0,0,0-1.86-4.56l-.6-.48a6.072,6.072,0,0,0-3.9-1.38H422.966a6.356,6.356,0,0,0-3.96,1.38l-.54.48a6.392,6.392,0,0,0-1.86,4.56c0,13.02,28.379,3.24,28.379,17.52A8.067,8.067,0,0,1,437,131H422.545a8,8,0,0,1-5.64-2.34l-.18-.24a7.866,7.866,0,0,1-2.16-5.16v-.3a.794.794,0,0,1,.78-.78.809.809,0,0,1,.84.78,6.4,6.4,0,0,0,1.68,4.32l.18.24a6.356,6.356,0,0,0,4.5,1.86H437a6.415,6.415,0,0,0,6.36-6.419c0-7.62-9.18-6.84-13.859-7.98-8.16-1.02-14.52-2.88-14.52-9.54a8.136,8.136,0,0,1,2.34-5.7l.18-.18a8.031,8.031,0,0,1,5.46-2.16h13.739a8.031,8.031,0,0,1,5.46,2.16l.18.18a8,8,0,0,1,2.34,5.64Zm8.761,24.779a.809.809,0,0,1-.84.78.794.794,0,0,1-.78-.78V98.241a.794.794,0,0,1,.78-.78.809.809,0,0,1,.84.78ZM483.563,109.4a10.8,10.8,0,1,1,0,21.6h-7.739a14.2,14.2,0,0,1-14.1-14.1v-5.34a14.239,14.239,0,0,1,14.1-14.1h14.819a.808.808,0,0,1,.84.78.82.82,0,0,1-.84.84H475.824a12.548,12.548,0,0,0-12.479,12.479v5.34a12.547,12.547,0,0,0,12.479,12.479h7.739a9.179,9.179,0,1,0,0-18.359h-7.68a.821.821,0,0,1-.84-.84.809.809,0,0,1,.84-.78h7.68Zm17.1,20.759a.72.72,0,0,1-1.44,0V100.221a2.75,2.75,0,0,1,2.76-2.76,2.643,2.643,0,0,1,2.16,1.08l23.639,30.479a1.136,1.136,0,0,0,.96.54,1.345,1.345,0,0,0,1.38-1.32V98.3a.72.72,0,0,1,1.44,0V128.24A2.791,2.791,0,0,1,528.8,131a2.643,2.643,0,0,1-2.16-1.08L503,99.441a1.221,1.221,0,0,0-.96-.54,1.346,1.346,0,0,0-1.38,1.32Zm39.3,0a.72.72,0,0,1-1.44,0V100.221a2.75,2.75,0,0,1,2.76-2.76,2.643,2.643,0,0,1,2.16,1.08l23.639,30.479a1.136,1.136,0,0,0,.96.54,1.345,1.345,0,0,0,1.38-1.32V98.3a.72.72,0,0,1,1.44,0V128.24A2.791,2.791,0,0,1,568.1,131a2.643,2.643,0,0,1-2.16-1.08L542.3,99.441a1.222,1.222,0,0,0-.96-.54,1.345,1.345,0,0,0-1.38,1.32Zm63.778-32.7a.809.809,0,0,1,.84.78.82.82,0,0,1-.84.84H591.924a12.548,12.548,0,0,0-12.479,12.479v1.86h22.2a.794.794,0,0,1,.779.78.808.808,0,0,1-.779.84h-22.2v1.86a12.547,12.547,0,0,0,12.479,12.479h11.819a.821.821,0,0,1,.84.84.809.809,0,0,1-.84.78H591.924a14.239,14.239,0,0,1-14.1-14.1v-5.34a14.238,14.238,0,0,1,14.1-14.1Zm36.72,7.979a.8.8,0,0,1-.78.78.808.808,0,0,1-.84-.78,6.392,6.392,0,0,0-1.86-4.56l-.6-.48a6.072,6.072,0,0,0-3.9-1.38H618.743a6.36,6.36,0,0,0-3.96,1.38l-.54.48a6.4,6.4,0,0,0-1.859,4.56c0,13.02,28.379,3.24,28.379,17.52a8.067,8.067,0,0,1-7.979,8.04h-14.46a8,8,0,0,1-5.64-2.34l-.18-.24a7.862,7.862,0,0,1-2.16-5.16v-.3a.8.8,0,0,1,.78-.78.809.809,0,0,1,.84.78,6.4,6.4,0,0,0,1.68,4.32l.18.24a6.358,6.358,0,0,0,4.5,1.86h14.46a6.414,6.414,0,0,0,6.359-6.419c0-7.62-9.18-6.84-13.859-7.98-8.16-1.02-14.52-2.88-14.52-9.54a8.136,8.136,0,0,1,2.34-5.7l.18-.18a8.031,8.031,0,0,1,5.46-2.16h13.739a8.031,8.031,0,0,1,5.46,2.16l.181.18a8,8,0,0,1,2.34,5.64Zm18.78,24.779a.794.794,0,0,1-.779.78.808.808,0,0,1-.84-.78V99.081H644.6a.809.809,0,0,1-.78-.84.794.794,0,0,1,.78-.78h27.658a.794.794,0,0,1,.78.78.809.809,0,0,1-.78.84h-13.02Z" style="fill: none"/>
    </clipPath>
  </defs>
  <title>logo-ani</title>
  <g id="clip">
    <g style="clip-path: url(#clip-path)">
      <polyline id="path" points="317.066 58.632 316.066 14.632 332.066 19.632 303.066 19.632 303.066 50.632 298.066 58.632 268.066 53.632 269.066 45.632 272.066 51.632 277.066 51.632 296.601 52.012 298.066 45.632 296.436 39.243 274.197 35.045 269.066 27.632 272.066 21.632 278.066 21.632 295.066 21.632 300.066 27.632 300.066 15.632 271.066 15.632 261.066 37.632 241.399 37.673 264.066 53.632 247.672 53.222 242.598 48.714 237.711 44.203 237.066 39.632 237.286 30.939 240.065 25.37 247.383 20.577 264.066 19.632 264.066 15.632 253.066 15.632 230.066 21.632 230.066 51.632 226.066 51.632 202.066 21.632 198.066 21.632 198.066 53.632 191.066 19.632 191.066 51.632 187.066 51.632 163.066 21.632 158.066 21.632 158.066 56.632 157.585 53.749 153.066 26.632 133.066 26.632 134.066 33.632 143.066 31.632 148.503 33.822 153.066 42.632 151.28 49.209 143.066 51.632 130.399 52.012 124.129 48.577 121.066 39.632 121.066 33.632 123.91 25.439 130.662 20.762 150.066 21.632 153.066 15.632 117.066 15.632 117.066 56.632 112.066 56.632 112.066 15.632 109.066 15.632 107.066 58.632 72.066 58.632 70.066 44.632 74.066 44.632 76.066 51.632 82.066 51.632 99.066 52.012 104.066 45.632 100.889 39.394 82.157 35 76.878 31.961 74.066 27.632 78.066 21.632 100.066 21.632 104.066 27.632 105.066 15.632 74.066 15.632 66.066 36.632 45.399 36.863 67.066 51.632 54.066 51.632 48.24 49.855 43.607 44.084 43.066 33.632 43.797 26.012 51.618 20.573 67.066 21.632 70.066 15.632 14.066 15.632 7.066 26.632 7.066 46.632 10.066 51.632 26.732 52.012 34.391 45.912 34.391 27.84 26.13 20.778 8.874 21.344 0.066 21.632" style="fill: none;stroke: #000;stroke-miterlimit: 10;stroke-width: 4px"/>
    </g>
  </g>
</svg>
