<?xml version="1.0" encoding="UTF-8" standalone="no"?>
<!-- Created with Inkscape (http://www.inkscape.org/) -->

<svg
   xmlns:dc="http://purl.org/dc/elements/1.1/"
   xmlns:cc="http://creativecommons.org/ns#"
   xmlns:rdf="http://www.w3.org/1999/02/22-rdf-syntax-ns#"
   xmlns:svg="http://www.w3.org/2000/svg"
   xmlns="http://www.w3.org/2000/svg"
   xmlns:sodipodi="http://sodipodi.sourceforge.net/DTD/sodipodi-0.dtd"
   xmlns:inkscape="http://www.inkscape.org/namespaces/inkscape"
   width="193.59337mm"
   height="37.670174mm"
   viewBox="0 0 193.59337 37.670174"
   version="1.1"
   id="svg4619"
   inkscape:version="0.92.4 (5da689c313, 2019-01-14)"
   sodipodi:docname="logo.svg">
  <defs
     id="defs4613">
    <clipPath
       clipPathUnits="userSpaceOnUse"
       id="clipPath5180">
      <g
         id="use5182"
         inkscape:label="Clip">
        <text
           xml:space="preserve"
           style="font-style:normal;font-variant:normal;font-weight:normal;font-stretch:normal;font-size:43.4763298px;line-height:1.25;font-family:'Noto Sans';-inkscape-font-specification:'Noto Sans';letter-spacing:0px;word-spacing:0px;fill:#000000;fill-opacity:1;stroke:none;stroke-width:1.08690822"
           x="9.0424004"
           y="57.69342"
           id="text5186"
           transform="scale(1.0233899,0.97714468)"><tspan
             sodipodi:role="line"
             id="tspan5184"
             x="9.0424004"
             y="57.69342"
             style="font-style:normal;font-variant:normal;font-weight:normal;font-stretch:normal;font-family:'Freestyle Script';-inkscape-font-specification:'Freestyle Script';fill:#000000;stroke-width:1.08690822">DESIGNNEST</tspan></text>
      </g>
    </clipPath>
  </defs>
  <sodipodi:namedview
     id="base"
     pagecolor="#ffffff"
     bordercolor="#666666"
     borderopacity="1.0"
     inkscape:pageopacity="0.0"
     inkscape:pageshadow="2"
     inkscape:zoom="2"
     inkscape:cx="440.84574"
     inkscape:cy="44.830622"
     inkscape:document-units="mm"
     inkscape:current-layer="text3769"
     showgrid="false"
     inkscape:window-width="2686"
     inkscape:window-height="1164"
     inkscape:window-x="2103"
     inkscape:window-y="501"
     inkscape:window-maximized="0"
     borderlayer="false" />
  <metadata
     id="metadata4616">
    <rdf:RDF>
      <cc:Work
         rdf:about="">
        <dc:format>image/svg+xml</dc:format>
        <dc:type
           rdf:resource="http://purl.org/dc/dcmitype/StillImage" />
        <dc:title></dc:title>
      </cc:Work>
    </rdf:RDF>
  </metadata>
  <g
     inkscape:label="Layer 1"
     inkscape:groupmode="layer"
     id="layer1"
     transform="translate(-9.0366491,-27.188731)">
    <g
       aria-label="DESIGNNEST"
       transform="scale(1.0233899,0.97714468)"
       style="font-style:normal;font-variant:normal;font-weight:normal;font-stretch:normal;font-size:43.4763298px;line-height:1.25;font-family:'Noto Sans';-inkscape-font-specification:'Noto Sans';letter-spacing:0px;word-spacing:0px;fill:#000000;fill-opacity:1;stroke:none;stroke-width:1.08690822"
       id="text3769">
      <path
         d="m 18.977421,33.513958 q -0.573174,0.31843 -1.082662,0.721775 -0.912834,0.764232 -1.358636,0.764232 -0.339659,0 -0.615631,-0.275973 -0.297202,-0.297201 -0.297202,-0.658089 0,-0.785461 2.059182,-2.335154 3.163073,-2.377612 6.963006,-2.377612 2.950786,0 4.691537,1.93181 1.570922,1.740751 1.570922,4.203278 0,4.075906 -3.014472,9.574133 -3.52396,6.432289 -9.170788,10.656795 -4.182049,3.141845 -7.430037,3.141845 -1.273721,0 -1.9318095,-0.764233 -0.5307169,-0.63686 -0.5307169,-1.358635 0,-1.082663 1.4010924,-4.882596 2.122868,-5.689285 5.264712,-11.86683 0.467031,-0.934062 3.481503,-6.474746 z m 1.995496,-0.976519 q 0.63686,0.31843 0.63686,0.700546 0,0.275973 -0.80669,1.740751 -3.969762,7.111607 -6.708262,13.628811 -2.483755,5.859115 -2.483755,7.196521 0,0.849147 0.80669,0.849147 1.358635,0 3.651332,-1.464778 2.865872,-1.804438 6.304917,-6.050173 3.120616,-3.821162 4.925053,-8.130583 1.401093,-3.311674 1.401093,-5.880344 0,-1.825666 -0.891604,-2.71727 -0.891605,-0.912834 -2.674814,-0.912834 -1.804437,0 -4.16082,1.040206 z"
         style="font-style:normal;font-variant:normal;font-weight:normal;font-stretch:normal;font-family:'Freestyle Script';-inkscape-font-specification:'Freestyle Script';fill:#000000;stroke-width:1.08690822"
         id="path5194" />
      <path
         d="m 38.146917,40.328363 0.849147,-0.148601 q 4.691537,-0.891604 6.538432,-0.891604 1.337407,0 1.337407,1.082662 0,0.679318 -0.530717,0.912833 -0.360888,0.16983 -1.231264,0.212287 -5.498227,0.339659 -8.364098,1.294949 -1.12512,1.677066 -3.290445,6.26246 -1.252492,2.674813 -1.953038,4.946282 0.488259,-0.16983 0.95529,-0.339659 3.141844,-1.061434 4.627852,-1.379864 1.974267,-0.382116 3.715018,-0.382116 1.146349,0 1.698294,0.275972 0.48826,0.233516 0.48826,0.891605 0,0.658089 -0.594403,0.870376 -0.275973,0.08491 -1.316178,0.106143 -5.625599,0.297201 -10.019935,2.759728 -0.573175,0.31843 -0.97652,0.31843 -0.594403,0 -1.061433,-0.615631 -0.403345,-0.509489 -0.403345,-1.040206 0,-0.530717 1.337406,-3.906076 2.016725,-5.116111 5.498228,-11.208741 1.040205,-1.846895 3.948533,-6.220003 0.658089,-1.018976 1.273721,-1.995495 -0.849147,-0.212287 -0.849147,-1.12512 0,-0.679318 0.679318,-0.997748 1.103891,-0.509488 4.245735,-0.997748 4.691537,-0.721775 7.960754,-0.721775 1.846895,0 1.846895,0.976519 0,0.679318 -0.636861,1.146349 -0.31843,0.233515 -1.018976,0.233515 -0.04246,0 -0.48826,-0.02123 -0.31843,0 -0.700546,0 -1.528465,0 -4.415565,0.31843 -2.504984,0.275973 -4.309421,0.80669 0.212287,0.31843 0.212287,0.509488 0,0.360887 -0.997748,1.655837 l -1.018977,1.570922 q -2.186553,3.226758 -3.0357,4.840138 z"
         style="font-style:normal;font-variant:normal;font-weight:normal;font-stretch:normal;font-family:'Freestyle Script';-inkscape-font-specification:'Freestyle Script';fill:#000000;stroke-width:1.08690822"
         id="path5196" />
      <path
         d="m 49.461801,47.843314 q 1.146349,0 1.146349,0.934062 0,0.700547 -1.061434,1.061434 -1.825666,0.658089 -1.825666,2.356383 0,1.358635 1.061434,2.122868 0.912833,0.63686 2.313926,0.63686 2.802185,0 4.903824,-1.634608 1.316178,-1.040205 1.316178,-2.632356 0,-0.976519 -0.382116,-1.76198 -0.403345,-0.80669 -1.231264,-2.037953 -1.27372,-1.910581 -2.144096,-3.481503 -0.976519,-1.740751 -0.976519,-3.417817 0,-3.969762 3.927305,-7.430037 2.08041,-1.804437 4.585394,-2.929557 2.080411,-0.912833 4.01222,-0.912833 1.252492,0 2.122868,0.658089 1.061434,0.785461 1.061434,2.144096 0,2.122868 -2.292697,4.585394 -2.165325,2.313926 -5.052426,3.778705 -1.44355,0.721775 -2.186553,0.721775 -0.48826,0 -0.870376,-0.403345 -0.254744,-0.275973 -0.254744,-0.615632 0,-0.785461 1.401093,-1.27372 2.568669,-0.912833 4.542936,-2.56867 2.547442,-2.122868 2.547442,-3.715019 0,-0.615631 -0.509489,-0.997747 -0.403344,-0.297202 -0.95529,-0.297202 -1.464779,0 -3.672561,1.12512 -2.972015,1.507236 -4.670309,3.884848 -1.486007,2.059181 -1.486007,4.01222 0,1.422321 0.785461,2.929557 0.658089,1.210035 1.677065,2.738499 0.976519,1.464779 1.655837,2.717271 0.785461,1.486007 0.785461,2.780957 0,2.504983 -2.865871,4.436793 -2.441298,1.613379 -5.519456,1.613379 -3.035701,0 -4.755224,-1.677065 -1.294949,-1.273721 -1.294949,-2.929557 0,-1.846895 1.231263,-3.099387 0.743004,-0.764233 1.76198,-1.146349 0.700547,-0.275973 1.167577,-0.275973 z"
         style="font-style:normal;font-variant:normal;font-weight:normal;font-stretch:normal;font-family:'Freestyle Script';-inkscape-font-specification:'Freestyle Script';fill:#000000;stroke-width:1.08690822"
         id="path5198" />
      <path
         d="m 78.20543,28.971021 q 0.339659,0 0.658089,0.360887 0.275973,0.318431 0.275973,0.700547 0,0.530717 -0.573175,1.44355 -0.275972,0.445802 -2.08041,2.950786 -8.449013,11.633315 -10.869082,20.995161 -0.275973,1.507236 -1.146349,1.507236 -0.467031,0 -0.827918,-0.445802 -0.339659,-0.403345 -0.339659,-0.912833 0,-1.061434 1.018976,-3.927305 2.335155,-6.623348 8.364099,-15.836593 2.462526,-3.778705 4.01222,-5.668057 0.997748,-1.167577 1.507236,-1.167577 z"
         style="font-style:normal;font-variant:normal;font-weight:normal;font-stretch:normal;font-family:'Freestyle Script';-inkscape-font-specification:'Freestyle Script';fill:#000000;stroke-width:1.08690822"
         id="path5200" />
      <path
         d="m 82.748366,52.810825 q -1.44355,0.997748 -2.313926,1.486007 -1.995495,1.146349 -3.460274,1.146349 -1.719523,0 -2.844643,-1.677066 -0.806689,-1.210034 -0.806689,-2.780956 0,-4.373108 3.821161,-10.189765 3.545189,-5.370855 8.215498,-9.255703 3.821162,-3.184302 6.559661,-3.184302 1.379864,0 2.25024,1.167577 0.658089,0.891605 0.658089,2.101639 0,3.69379 -3.608875,7.663553 -2.759728,3.035701 -4.182049,3.035701 -0.31843,0 -0.636861,-0.254745 -0.339658,-0.297201 -0.339658,-0.700546 0,-0.530717 0.934061,-1.294949 2.398841,-1.93181 3.906077,-3.948534 2.356383,-3.120616 2.356383,-4.946282 0,-0.488259 -0.360888,-0.785461 -0.339658,-0.275973 -0.827918,-0.275973 -1.12512,0 -3.014472,1.316178 -3.948534,2.780957 -7.790924,7.790925 -2.483756,3.247987 -4.139592,6.708262 -1.44355,3.0357 -1.44355,4.96751 0,0.764232 0.488259,1.44355 0.658089,0.912833 1.719523,0.912833 1.507236,0 3.715018,-1.592151 2.759728,-1.995495 3.948534,-3.20553 0.997748,-1.018976 1.507236,-1.018976 0.360888,0 0.594403,0.275972 0.297202,0.360888 0.297202,0.891605 0,0.594403 -0.721775,1.570922 -0.743004,0.976519 -2.292697,3.630104 -1.783209,3.0357 -3.290445,6.580889 -1.337407,3.120616 -1.61338,4.224507 -0.233515,0.934062 -0.530717,1.337407 -0.31843,0.424573 -0.976519,0.424573 -0.551945,0 -0.849147,-0.382116 -0.254744,-0.339659 -0.254744,-0.80669 0,-1.804437 2.101639,-6.241231 0.339659,-0.700546 2.144096,-4.075906 0.360888,-0.679317 1.082663,-2.059181 z"
         style="font-style:normal;font-variant:normal;font-weight:normal;font-stretch:normal;font-family:'Freestyle Script';-inkscape-font-specification:'Freestyle Script';fill:#000000;stroke-width:1.08690822"
         id="path5202" />
      <path
         d="m 103.02175,52.895739 q 1.76198,-5.243483 4.16082,-9.998706 1.88936,-3.715019 5.07366,-9.319389 2.35638,-4.139592 3.09938,-4.946282 0.74301,-0.80669 1.52847,-0.80669 0.67932,0 0.67932,0.594403 0,0.31843 -0.2972,0.827919 -0.27598,0.488259 -1.76198,2.865871 -4.90383,7.981982 -7.15407,13.119322 -2.03795,4.606623 -3.50273,9.022188 -0.53072,1.592151 -1.16758,2.356383 -0.93406,1.146348 -1.88935,1.146348 -0.87038,0 -1.10389,-1.252491 -0.10614,-0.509489 -0.10614,-1.953039 0,-5.073653 0.99774,-11.272427 0.89161,-5.434541 1.80444,-8.724986 -2.03795,2.25024 -6.092629,9.425532 -3.20553,5.689286 -4.797681,10.614339 -0.658089,2.037953 -0.95529,2.526212 -0.551946,0.934062 -1.422322,0.934062 -0.360887,0 -0.615631,-0.297202 -0.212287,-0.254744 -0.212287,-0.509488 0,-0.80669 1.379864,-4.266964 1.783209,-4.500479 5.922801,-11.505943 2.462526,-4.182049 5.859115,-8.894815 1.61338,-2.25024 2.39884,-2.908329 0.72178,-0.594403 1.35864,-0.594403 0.27597,0 0.48825,0.16983 0.29721,0.233515 0.29721,0.573174 0,0.424573 -0.21229,0.95529 -1.01898,2.611128 -2.10164,7.238979 -1.71952,7.451266 -1.71952,12.67352 0,0.721775 0.0637,2.207782 z"
         style="font-style:normal;font-variant:normal;font-weight:normal;font-stretch:normal;font-family:'Freestyle Script';-inkscape-font-specification:'Freestyle Script';fill:#000000;stroke-width:1.08690822"
         id="path5204" />
      <path
         d="m 124.67501,52.895739 q 1.76198,-5.243483 4.16082,-9.998706 1.88935,-3.715019 5.07365,-9.319389 2.35638,-4.139592 3.09939,-4.946282 0.743,-0.80669 1.52846,-0.80669 0.67932,0 0.67932,0.594403 0,0.31843 -0.2972,0.827919 -0.27598,0.488259 -1.76198,2.865871 -4.90383,7.981982 -7.15407,13.119322 -2.03795,4.606623 -3.50273,9.022188 -0.53072,1.592151 -1.16758,2.356383 -0.93406,1.146348 -1.88935,1.146348 -0.87037,0 -1.10389,-1.252491 -0.10614,-0.509489 -0.10614,-1.953039 0,-5.073653 0.99775,-11.272427 0.8916,-5.434541 1.80443,-8.724986 -2.03795,2.25024 -6.09263,9.425532 -3.20553,5.689286 -4.79768,10.614339 -0.65809,2.037953 -0.95529,2.526212 -0.55194,0.934062 -1.42232,0.934062 -0.36089,0 -0.61563,-0.297202 -0.21229,-0.254744 -0.21229,-0.509488 0,-0.80669 1.37987,-4.266964 1.7832,-4.500479 5.9228,-11.505943 2.46252,-4.182049 5.85911,-8.894815 1.61338,-2.25024 2.39884,-2.908329 0.72178,-0.594403 1.35864,-0.594403 0.27597,0 0.48826,0.16983 0.2972,0.233515 0.2972,0.573174 0,0.424573 -0.21229,0.95529 -1.01898,2.611128 -2.10164,7.238979 -1.71952,7.451266 -1.71952,12.67352 0,0.721775 0.0637,2.207782 z"
         style="font-style:normal;font-variant:normal;font-weight:normal;font-stretch:normal;font-family:'Freestyle Script';-inkscape-font-specification:'Freestyle Script';fill:#000000;stroke-width:1.08690822"
         id="path5206" />
      <path
         d="m 143.01658,40.328363 0.84914,-0.148601 q 4.69154,-0.891604 6.53844,-0.891604 1.3374,0 1.3374,1.082662 0,0.679318 -0.53071,0.912833 -0.36089,0.16983 -1.23127,0.212287 -5.49823,0.339659 -8.3641,1.294949 -1.12512,1.677066 -3.29044,6.26246 -1.25249,2.674813 -1.95304,4.946282 0.48826,-0.16983 0.95529,-0.339659 3.14184,-1.061434 4.62785,-1.379864 1.97427,-0.382116 3.71502,-0.382116 1.14635,0 1.69829,0.275972 0.48826,0.233516 0.48826,0.891605 0,0.658089 -0.5944,0.870376 -0.27597,0.08491 -1.31618,0.106143 -5.6256,0.297201 -10.01993,2.759728 -0.57318,0.31843 -0.97652,0.31843 -0.5944,0 -1.06144,-0.615631 -0.40334,-0.509489 -0.40334,-1.040206 0,-0.530717 1.33741,-3.906076 2.01672,-5.116111 5.49822,-11.208741 1.04021,-1.846895 3.94854,-6.220003 0.65809,-1.018976 1.27372,-1.995495 -0.84915,-0.212287 -0.84915,-1.12512 0,-0.679318 0.67932,-0.997748 1.10389,-0.509488 4.24573,-0.997748 4.69154,-0.721775 7.96076,-0.721775 1.84689,0 1.84689,0.976519 0,0.679318 -0.63686,1.146349 -0.31843,0.233515 -1.01897,0.233515 -0.0425,0 -0.48826,-0.02123 -0.31843,0 -0.70055,0 -1.52846,0 -4.41556,0.31843 -2.50499,0.275973 -4.30943,0.80669 0.21229,0.31843 0.21229,0.509488 0,0.360887 -0.99775,1.655837 l -1.01897,1.570922 q -2.18656,3.226758 -3.0357,4.840138 z"
         style="font-style:normal;font-variant:normal;font-weight:normal;font-stretch:normal;font-family:'Freestyle Script';-inkscape-font-specification:'Freestyle Script';fill:#000000;stroke-width:1.08690822"
         id="path5208" />
      <path
         d="m 154.33146,47.843314 q 1.14635,0 1.14635,0.934062 0,0.700547 -1.06143,1.061434 -1.82567,0.658089 -1.82567,2.356383 0,1.358635 1.06143,2.122868 0.91284,0.63686 2.31393,0.63686 2.80218,0 4.90382,-1.634608 1.31618,-1.040205 1.31618,-2.632356 0,-0.976519 -0.38211,-1.76198 -0.40335,-0.80669 -1.23127,-2.037953 -1.27372,-1.910581 -2.14409,-3.481503 -0.97652,-1.740751 -0.97652,-3.417817 0,-3.969762 3.9273,-7.430037 2.08041,-1.804437 4.5854,-2.929557 2.08041,-0.912833 4.01222,-0.912833 1.25249,0 2.12286,0.658089 1.06144,0.785461 1.06144,2.144096 0,2.122868 -2.2927,4.585394 -2.16533,2.313926 -5.05243,3.778705 -1.44355,0.721775 -2.18655,0.721775 -0.48826,0 -0.87037,-0.403345 -0.25475,-0.275973 -0.25475,-0.615632 0,-0.785461 1.40109,-1.27372 2.56867,-0.912833 4.54294,-2.56867 2.54744,-2.122868 2.54744,-3.715019 0,-0.615631 -0.50949,-0.997747 -0.40334,-0.297202 -0.95529,-0.297202 -1.46478,0 -3.67256,1.12512 -2.97201,1.507236 -4.67031,3.884848 -1.486,2.059181 -1.486,4.01222 0,1.422321 0.78546,2.929557 0.65809,1.210035 1.67706,2.738499 0.97652,1.464779 1.65584,2.717271 0.78546,1.486007 0.78546,2.780957 0,2.504983 -2.86587,4.436793 -2.4413,1.613379 -5.51946,1.613379 -3.0357,0 -4.75522,-1.677065 -1.29495,-1.273721 -1.29495,-2.929557 0,-1.846895 1.23126,-3.099387 0.74301,-0.764233 1.76198,-1.146349 0.70055,-0.275973 1.16758,-0.275973 z"
         style="font-style:normal;font-variant:normal;font-weight:normal;font-stretch:normal;font-family:'Freestyle Script';-inkscape-font-specification:'Freestyle Script';fill:#000000;stroke-width:1.08690822"
         id="path5210" />
      <path
         d="m 183.88178,31.87935 q -4.24574,0.658089 -7.87584,1.677065 -0.76423,0.275973 -1.18881,0.275973 -0.48826,0 -0.82791,-0.445802 -0.21229,-0.254744 -0.21229,-0.594403 0,-0.912833 1.31618,-1.337407 3.52396,-1.061434 8.30041,-1.953038 5.98649,-1.082663 11.50594,-1.082663 1.86813,0 2.50499,0.233516 0.5944,0.212287 0.5944,0.806689 0,0.997748 -1.46478,1.167578 -1.27372,0.127372 -3.84239,0.191058 -5.11611,0.169829 -7.00546,0.63686 0.53071,0.212287 0.53071,0.658089 0,0.467031 -0.67931,1.464779 -4.03345,5.901572 -7.70601,13.395295 -2.80219,5.689285 -4.09714,10.10485 -0.2972,1.337406 -1.01897,1.337406 -0.65809,0 -1.1039,-0.679317 -0.2972,-0.445802 -0.2972,-0.934062 0,-1.953038 3.71502,-9.510447 2.37761,-4.861367 4.39434,-8.194269 0.80669,-1.358636 3.88484,-6.304917 z"
         style="font-style:normal;font-variant:normal;font-weight:normal;font-stretch:normal;font-family:'Freestyle Script';-inkscape-font-specification:'Freestyle Script';fill:#000000;stroke-width:1.08690822"
         id="path5212" />
    </g>
  </g>
</svg>
