<!--?xml version="1.0" encoding="iso-8859-1"?-->
<!-- Generator: Adobe Illustrator 19.0.0, SVG Export Plug-In . SVG Version: 6.00 Build 0)  -->
<svg version="1.1" id="Capa_1" xmlns="http://www.w3.org/2000/svg" xmlns:xlink="http://www.w3.org/1999/xlink" x="0px" y="0px" viewBox="0 0 490 490" style="" xml:space="preserve">
<g>
	<g>
		<path d="M0,167.85v216.2c0,33,26.8,59.8,59.8,59.8h370.4c33,0,59.8-26.8,59.8-59.8v-216.2c0-31.4-25.5-56.9-56.9-56.9h-79.6
			l-1.9-8.3c-7.7-33.3-37-56.5-71.2-56.5h-70.9c-34.1,0-63.4,23.2-71.2,56.5l-1.9,8.3H56.9C25.5,110.95,0,136.55,0,167.85z
			 M146.2,135.45c5.7,0,10.6-3.9,11.9-9.5l4.1-17.8c5.2-22.1,24.6-37.5,47.3-37.5h70.9c22.7,0,42.1,15.4,47.3,37.5l4.1,17.8
			c1.3,5.5,6.2,9.5,11.9,9.5H433c17.9,0,32.4,14.5,32.4,32.4v216.2c0,19.5-15.8,35.3-35.3,35.3H59.8c-19.5,0-35.3-15.8-35.3-35.3
			v-216.2c0-17.9,14.5-32.4,32.4-32.4H146.2z" class="dTKrGYzG_0"></path>
		<path d="M66.5,187.75A16.4,16.4 0,1,1 99.30000000000001,187.75A16.4,16.4 0,1,1 66.5,187.75" class="dTKrGYzG_1"></path>
		<path d="M245,380.95c56.7,0,102.9-46.2,102.9-102.9s-46.2-102.9-102.9-102.9s-102.9,46.1-102.9,102.9S188.3,380.95,245,380.95z
			 M245,199.65c43.2,0,78.4,35.2,78.4,78.4s-35.2,78.4-78.4,78.4s-78.4-35.2-78.4-78.4S201.8,199.65,245,199.65z" class="dTKrGYzG_2"></path>
	</g>
</g>
<style data-made-with="vivus-instant">.dTKrGYzG_0{stroke-dasharray:3078 3080;stroke-dashoffset:3079;animation:dTKrGYzG_draw 2000ms ease-in-out 0ms forwards;}.dTKrGYzG_1{stroke-dasharray:104 106;stroke-dashoffset:105;animation:dTKrGYzG_draw 2000ms ease-in-out 500ms forwards;}.dTKrGYzG_2{stroke-dasharray:1139 1141;stroke-dashoffset:1140;animation:dTKrGYzG_draw 2000ms ease-in-out 1000ms forwards;}@keyframes dTKrGYzG_draw{100%{stroke-dashoffset:0;}}@keyframes dTKrGYzG_fade{0%{stroke-opacity:1;}94.44444444444444%{stroke-opacity:1;}100%{stroke-opacity:0;}}</style></svg>
