<svg height="704" viewBox="-16 -48 528 528" width="704" xmlns="http://www.w3.org/2000/svg"><path d="M217.113 41.047h-.035c-5.578.047-10.082 4.59-10.09 10.176-.011 5.582 4.477 10.132 10.063 10.203h.035c5.578-.051 10.082-4.59 10.094-10.176.007-5.586-4.48-10.137-10.067-10.203zm0 0M0 389.277c.023 22.77 18.48 41.223 41.25 41.25h412.5c22.77-.027 41.227-18.48 41.25-41.25V120.535H0zm297.71-167.21c-3.683-3.133-4.12-8.657-.987-12.34 3.129-3.676 8.652-4.122 12.336-.985l56.613 48.211a8.766 8.766 0 013.078 6.668c0 2.563-1.125 5-3.078 6.66l-56.613 48.211c-3.684 3.137-9.207 2.692-12.336-.984a8.748 8.748 0 01.988-12.336l48.789-41.55zm-78.827 124.12l35.289-167.539c.992-4.73 5.637-7.757 10.363-6.761 4.73.996 7.754 5.64 6.758 10.367l-35.285 167.543a8.75 8.75 0 01-17.125-3.61zm-89.555-89.234l56.613-48.21c3.684-3.138 9.207-2.692 12.336.984 3.133 3.683 2.696 9.207-.988 12.34L148.5 263.62l48.797 41.55a8.755 8.755 0 01.984 12.337c-3.129 3.676-8.656 4.12-12.336.984l-56.613-48.21a8.744 8.744 0 01-3.078-6.66c0-2.567 1.125-5 3.078-6.669zm0 0M132.035 40.777H132c-5.52.141-9.926 4.653-9.93 10.176-.007 5.52 4.38 10.043 9.899 10.2H132c5.52-.141 9.922-4.653 9.934-10.169.004-5.523-4.387-10.047-9.903-10.207zm0 0" style="fill: none;stroke: #000;stroke-miterlimit: 10;stroke-width: 5px"/><path d="M453.75-2.082H41.25C18.48-2.059.023 16.398 0 39.168v63.867h495V39.168c-.023-22.77-18.48-41.227-41.25-41.25zM46.922 78.395h-.086c-15.309-.024-27.7-12.45-27.688-27.758.012-15.309 12.422-27.711 27.73-27.711 15.313 0 27.727 12.402 27.735 27.71.016 15.31-12.379 27.735-27.691 27.759zm112.77-27.34C159.628 66.309 147.25 78.645 132 78.66h-.086c-15.113-.27-27.219-12.613-27.191-27.73.02-15.114 12.16-27.418 27.273-27.64h.094c15.285.062 27.633 12.487 27.601 27.772zm85.078.27c-.047 15.253-12.426 27.597-27.684 27.6H217c-15.223-.12-27.488-12.507-27.469-27.734.024-15.222 12.336-27.57 27.559-27.644h.082c15.289.062 27.637 12.488 27.601 27.777zm0 0" style="fill: none;stroke: #000;stroke-miterlimit: 10;stroke-width: 5px" /><path d="M46.957 40.516h-.035c-5.535.109-9.969 4.629-9.977 10.168-.011 5.543 4.407 10.074 9.95 10.207h.027a10.196 10.196 0 009.984-10.176c.008-5.54-4.41-10.07-9.949-10.2zm0 0" style="fill: none;stroke: #000;stroke-miterlimit: 10;stroke-width: 5px" /></svg>
